<svg width="94" height="57" viewBox="0 0 94 57" fill="none" xmlns="http://www.w3.org/2000/svg">
<path d="M58.679 17.9062C58.5464 16.6657 57.9877 15.6998 57.0028 15.0085C56.0275 14.3172 54.7585 13.9716 53.196 13.9716C52.0975 13.9716 51.1553 14.1373 50.3693 14.4688C49.5833 14.8002 48.982 15.25 48.5653 15.8182C48.1487 16.3864 47.9356 17.035 47.9261 17.7642C47.9261 18.3703 48.0634 18.8958 48.3381 19.3409C48.6222 19.786 49.0057 20.1648 49.4886 20.4773C49.9716 20.7803 50.5066 21.036 51.0938 21.2443C51.6809 21.4527 52.2727 21.6278 52.8693 21.7699L55.5966 22.4517C56.6951 22.7074 57.7509 23.053 58.7642 23.4886C59.7869 23.9242 60.7008 24.4735 61.5057 25.1364C62.3201 25.7992 62.964 26.5994 63.4375 27.5369C63.911 28.4744 64.1477 29.5729 64.1477 30.8324C64.1477 32.5369 63.7121 34.0379 62.8409 35.3352C61.9697 36.6231 60.7102 37.6316 59.0625 38.3608C57.4242 39.0805 55.4403 39.4403 53.1108 39.4403C50.8475 39.4403 48.8826 39.09 47.2159 38.3892C45.5587 37.6884 44.2614 36.6657 43.3239 35.321C42.3958 33.9763 41.8939 32.3381 41.8182 30.4062H47.0028C47.0786 31.4195 47.3911 32.2623 47.9403 32.9347C48.4896 33.607 49.2045 34.1089 50.0852 34.4403C50.9754 34.7718 51.9697 34.9375 53.0682 34.9375C54.214 34.9375 55.2178 34.767 56.0795 34.4261C56.9508 34.0758 57.6326 33.5928 58.125 32.9773C58.6174 32.3523 58.8684 31.6231 58.8778 30.7898C58.8684 30.0322 58.6458 29.4072 58.2102 28.9148C57.7746 28.4129 57.1638 27.9962 56.3778 27.6648C55.6013 27.3239 54.6922 27.0208 53.6506 26.7557L50.3409 25.9034C47.9451 25.2879 46.0511 24.3551 44.6591 23.1051C43.2765 21.8456 42.5852 20.1742 42.5852 18.0909C42.5852 16.3769 43.0492 14.8759 43.9773 13.5881C44.9148 12.3002 46.1884 11.3011 47.7983 10.5909C49.4081 9.87121 51.2311 9.51136 53.267 9.51136C55.3314 9.51136 57.1402 9.87121 58.6932 10.5909C60.2557 11.3011 61.482 12.2907 62.3722 13.5597C63.2623 14.8191 63.7216 16.268 63.75 17.9062H58.679ZM68.8459 39V9.90909H73.9879V20.7898H74.201C74.4661 20.2595 74.8402 19.696 75.3232 19.0994C75.8061 18.4934 76.4595 17.9773 77.2834 17.5511C78.1072 17.1155 79.1584 16.8977 80.4368 16.8977C82.1224 16.8977 83.6423 17.3286 84.9964 18.1903C86.3601 19.0426 87.4396 20.3068 88.2351 21.983C89.04 23.6496 89.4425 25.6951 89.4425 28.1193C89.4425 30.5152 89.0495 32.5511 88.2635 34.2273C87.4775 35.9034 86.4074 37.1818 85.0533 38.0625C83.6991 38.9432 82.165 39.3835 80.451 39.3835C79.201 39.3835 78.1641 39.1752 77.3402 38.7585C76.5163 38.3419 75.8535 37.84 75.3516 37.2528C74.8591 36.6562 74.4756 36.0928 74.201 35.5625H73.9027V39H68.8459ZM73.8885 28.0909C73.8885 29.5019 74.0874 30.7377 74.4851 31.7983C74.8923 32.8589 75.4747 33.6875 76.2322 34.2841C76.9993 34.8712 77.9273 35.1648 79.0163 35.1648C80.1527 35.1648 81.1044 34.8617 81.8714 34.2557C82.6385 33.6402 83.2161 32.8021 83.6044 31.7415C84.0021 30.6714 84.201 29.4545 84.201 28.0909C84.201 26.7367 84.0069 25.5341 83.6186 24.483C83.2304 23.4318 82.6527 22.608 81.8857 22.0114C81.1186 21.4148 80.1622 21.1165 79.0163 21.1165C77.9179 21.1165 76.9851 21.4053 76.218 21.983C75.451 22.5606 74.8686 23.3703 74.4709 24.4119C74.0826 25.4536 73.8885 26.6799 73.8885 28.0909Z" fill="black"/>
<g filter="url(#filter0_d_104_39)">
<path fill-rule="evenodd" clip-rule="evenodd" d="M24.4674 7.35839C23.5339 6.84418 22.3977 6.8638 21.4825 7.40994L9.9751 14.2772L9 14.8591V15.9946V31.1028C9 32.2036 9.60288 33.216 10.5707 33.7405L24.0006 41.0178L25.0749 41.5999L26.0832 40.9098L36.6945 33.6466C37.5115 33.0874 38 32.1611 38 31.171V15.9946V14.813L36.965 14.2428L24.4674 7.35839ZM15.4356 15.6767L23.0398 11.1387L31.7827 15.9548L24.8544 19.6027L15.4356 15.6767ZM26.9535 23.018L34 19.3079V30.6436L26.9535 35.4668V23.018Z" fill="black"/>
</g>
<defs>
<filter id="filter0_d_104_39" x="0.8" y="5.78608" width="45.4" height="51.0138" filterUnits="userSpaceOnUse" color-interpolation-filters="sRGB">
<feFlood flood-opacity="0" result="BackgroundImageFix"/>
<feColorMatrix in="SourceAlpha" type="matrix" values="0 0 0 0 0 0 0 0 0 0 0 0 0 0 0 0 0 0 127 0" result="hardAlpha"/>
<feOffset dy="7"/>
<feGaussianBlur stdDeviation="4.1"/>
<feComposite in2="hardAlpha" operator="out"/>
<feColorMatrix type="matrix" values="0 0 0 0 0 0 0 0 0 0 0 0 0 0 0 0 0 0 0.3 0"/>
<feBlend mode="normal" in2="BackgroundImageFix" result="effect1_dropShadow_104_39"/>
<feBlend mode="normal" in="SourceGraphic" in2="effect1_dropShadow_104_39" result="shape"/>
</filter>
</defs>
</svg>
