<svg width="48" height="48" viewBox="0 0 48 48" fill="none" xmlns="http://www.w3.org/2000/svg">
<rect width="48" height="48" rx="20" fill="white"/>
<path fill-rule="evenodd" clip-rule="evenodd" d="M24.4674 7.37231C23.5339 6.85809 22.3977 6.87771 21.4825 7.42385L9.9751 14.2911L9 14.873V16.0085V31.1167C9 32.2175 9.60288 33.2299 10.5707 33.7544L24.0006 41.0317L25.0749 41.6138L26.0832 40.9237L36.6945 33.6605C37.5115 33.1013 38 32.175 38 31.1849V16.0085V14.8269L36.965 14.2567L24.4674 7.37231ZM15.4356 15.6906L23.0398 11.1527L31.7827 15.9687L24.8544 19.6166L15.4356 15.6906ZM26.9535 23.032L34 19.3218V30.6575L26.9535 35.4807V23.032Z" fill="black"/>
</svg>
