<svg width="29" height="36" viewBox="0 0 29 36" fill="none" xmlns="http://www.w3.org/2000/svg">
<path fill-rule="evenodd" clip-rule="evenodd" d="M15.4674 1.35839C14.5339 0.844177 13.3977 0.863798 12.4825 1.40994L0.975097 8.27718L0 8.85909V9.99461V25.1028C0 26.2036 0.602882 27.216 1.57073 27.7405L15.0006 35.0178L16.0749 35.5999L17.0832 34.9098L27.6945 27.6466C28.5115 27.0874 29 26.161 29 25.171V9.99461V8.81296L27.965 8.24282L15.4674 1.35839ZM6.43556 9.67668L14.0398 5.13874L22.7827 9.95483L15.8544 13.6027L6.43556 9.67668ZM17.9535 17.018L25 13.3079V24.6436L17.9535 29.4668V17.018Z" fill="black"/>
</svg>
